<svg id="logo_Accelis" data-name="logo Accelis" xmlns="http://www.w3.org/2000/svg" width="108" height="65.42" viewBox="0 0 108 65.42">
  <path id="Path" d="M32,73h4.905v.409H33.063v1.717H36.5v.327H33.063v2.126h3.843v.327H32Z" transform="translate(-5.838 -13.318)"/>
  <path id="Shape" d="M42.126,77.493a1.793,1.793,0,0,0,1.39-.572,2.418,2.418,0,0,0,.491-1.635,2.283,2.283,0,0,0-.491-1.472,1.728,1.728,0,0,0-1.39-.491H40.818v4.17ZM40,73h2.044a3.226,3.226,0,0,1,2.126.572,1.985,1.985,0,0,1,.736,1.717,2.3,2.3,0,0,1-.736,1.88,2.882,2.882,0,0,1-2.126.654H40Z" transform="translate(-7.297 -13.314)"/>
  <path id="Path_1_" d="M48.572,78.069A2.786,2.786,0,0,1,48,76.27V73h.9v3.516a2.229,2.229,0,0,0,.327,1.308,1.678,1.678,0,0,0,2.371,0,1.966,1.966,0,0,0,.327-1.308V73h.818v3.27a2.786,2.786,0,0,1-.572,1.8,2.335,2.335,0,0,1-1.88.654,2.1,2.1,0,0,1-1.717-.654" transform="translate(-8.757 -13.318)"/>
  <path id="Path_2_" d="M56.815,77.905A2.9,2.9,0,0,1,56,75.78a2.76,2.76,0,0,1,.736-2.044A3.587,3.587,0,0,1,58.94,73a3.8,3.8,0,0,1,1.88.491,2.033,2.033,0,0,1,.9,1.308H60.9a1.817,1.817,0,0,0-.654-1.063,1.861,1.861,0,0,0-1.308-.327,2.158,2.158,0,0,0-1.553.572,2.341,2.341,0,0,0-.491,1.8,2.73,2.73,0,0,0,.491,1.8,2.093,2.093,0,0,0,1.553.654,2.4,2.4,0,0,0,1.308-.327,1.817,1.817,0,0,0,.654-1.063h.818a1.706,1.706,0,0,1-.9,1.308,3.8,3.8,0,0,1-1.88.491,3.024,3.024,0,0,1-2.207-.736" transform="translate(-10.214 -13.318)"/>
  <path id="Shape_1_" d="M67.924,76.27,66.7,73.818,65.472,76.27Zm.163.409h-2.78l-.654,1.226H64L66.7,73h.572L69.8,77.905h-.981Z" transform="translate(-11.676 -13.318)"/>
  <path id="Path_3_" d="M73.371,73.409H71V73h5.723v.409H74.352v4.5h-.981Z" transform="translate(-12.953 -13.318)"/>
  <path id="Shape_2_" d="M88.351,77.665a2.634,2.634,0,0,0,.491-1.88,3.1,3.1,0,0,0-.491-1.88,1.976,1.976,0,0,0-2.861,0A2.634,2.634,0,0,0,85,75.784a3.1,3.1,0,0,0,.491,1.88,2.015,2.015,0,0,0,1.39.654,2.2,2.2,0,0,0,1.472-.654m-2.943.736a2.818,2.818,0,0,1-.981-.981,3.853,3.853,0,0,1,0-3.107,2.818,2.818,0,0,1,.981-.981,3.884,3.884,0,0,1,3.025,0,2.818,2.818,0,0,1,.981.981,3.853,3.853,0,0,1,0,3.107,2.272,2.272,0,0,1-.981.981,3.884,3.884,0,0,1-3.025,0" transform="translate(-15.343 -13.323)"/>
  <path id="Path_4_" d="M93,73h.981l3.107,3.679V73h.818v4.905h-.572L93.9,73.736v4.17H93Z" transform="translate(-16.967 -13.318)"/>
  <path id="Shape_3_" d="M40.741,15.861c-.245.327-.245.491,0,.736a.624.624,0,0,0,.409.164c.164,0,.245-.245.245-.409a.643.643,0,0,0-.654-.491l.654-.245a.176.176,0,0,0,.164-.164v-.164c-.082-.245-.164-.572-.245-.818a9.522,9.522,0,0,0-2.534-3.188,9.253,9.253,0,0,1-1.063-.818h0a15.132,15.132,0,0,0,2.861,3.924c-.818-.327-1.8-.736-2.616-1.063a11.112,11.112,0,0,0-2.861-.572,11.83,11.83,0,0,0,5.478,2.371,5.421,5.421,0,0,0-2.616.981,1.993,1.993,0,0,0,.981,0,18.079,18.079,0,0,0,2.044-.409m6.541-.409L49,17.659a1.393,1.393,0,0,1-.818,0c-.981-.245-1.962-.572-2.943-.818a9.144,9.144,0,0,1-2.861-.981l-.491-.327-.409.327a9.739,9.739,0,0,0,2.861,1.553l-3.188.164.245.654a9.31,9.31,0,0,1,6.459.9l-3.434.818.327.736c1.063-.164,2.126-.409,3.188-.572a10.424,10.424,0,0,1,3.188,0,8.173,8.173,0,0,0-2.289,1.39l.491.327a.249.249,0,0,0,.327,0,7.061,7.061,0,0,1,1.308-.818,2.271,2.271,0,0,1,1.472-.245,3.945,3.945,0,0,1,1.8,1.226,17.4,17.4,0,0,1,2.044,2.78c.082.082.082.245.164.327.082.736.245,1.39.327,2.126a4.662,4.662,0,0,1,.082,1.063c0,1.39-.245,2.7-.327,4.088v1.063H54.885c-1.145.082-2.371.164-3.6.327-1.553.245-3.107.491-4.66.818-.9.164-1.8.409-2.616.572-.164,0-.245.082-.245.327v.327a107.437,107.437,0,0,1,31.558,0v-.572a59.957,59.957,0,0,0-12.672-1.8l-.491-1.308c-.164-.409-.245-.818-.409-1.145-.245-.409-.491-.9-.736-1.308a.743.743,0,0,1,0-.818,11.33,11.33,0,0,0,.491-3.27.492.492,0,0,1,.082-.327l2.453-2.616c.082-.082.164-.164.245-.164,1.39-.327,2.7-.736,4.088-1.063a6.609,6.609,0,0,1,2.534,0,11.952,11.952,0,0,0,1.635.409l1.8.327.082-.491a7.276,7.276,0,0,1-3.107-.981h.164a6.211,6.211,0,0,0,3.352-1.226,1.162,1.162,0,0,1,.491-.164h1.8a21.749,21.749,0,0,1,2.289.245h0a.365.365,0,0,0-.245-.327c-.654-.164-1.39-.327-2.126-.491l-1.717-.409.245-.736a8.255,8.255,0,0,1,1.063-1.308c.654-.654,1.308-1.308,1.962-1.88l-.245-.327-3.107,3.107a17.563,17.563,0,0,0,1.145-2.126,12.708,12.708,0,0,0,.572-2.534h-.572v.164A10.9,10.9,0,0,1,75,16.188L73.771,18.4a1.769,1.769,0,0,1-.981.9,24.246,24.246,0,0,1-4.251.654l.981-1.308-.409-.245a5.568,5.568,0,0,1-3.352,2.044,1.516,1.516,0,0,1,.164-.572,5.389,5.389,0,0,1,3.352-3.434c1.063-.409,2.207-.654,3.27-.981,0,0,0-.327-.245-.245l-1.553.245-.981.082.818-1.8a.371.371,0,0,0-.409,0c-.164.082-.245.164-.245.327a8.934,8.934,0,0,1-.654,1.226,2.08,2.08,0,0,1-.981.9L65.35,17.5a1.15,1.15,0,0,0-.572.491,14.387,14.387,0,0,0-.736,1.635,2.755,2.755,0,0,1-1.8,1.635l-.818.245H61.1a8.824,8.824,0,0,0-.245-1.553,2.434,2.434,0,0,1,.491-1.8l.654-.9a6.128,6.128,0,0,1,2.534-2.044c.9-.409,1.88-.736,2.78-1.063l3.27-1.39-.082-.491-2.861,1.145,1.063-1.8-.409-.164a8.17,8.17,0,0,0-.654,1.145,2.429,2.429,0,0,1-1.8,1.39c-.736.245-1.472.491-2.207.818.491-.818.9-1.472,1.39-2.207a3.327,3.327,0,0,0,.654-1.962c0-.409,0-.491-.491-.491a3.856,3.856,0,0,1-.981,2.616,22.927,22.927,0,0,0-.736-4.742l-.245.164-.245.164.082.327a15.962,15.962,0,0,1,.572,4.415,1.141,1.141,0,0,1-.245.736,26.307,26.307,0,0,1-2.861,3.107.867.867,0,0,1-1.472,0,5.248,5.248,0,0,1-.818-1.063,1.319,1.319,0,0,1-.245-.736c0-.736.245-1.553.245-2.289a12.3,12.3,0,0,0,0-2.453c-.164-1.063-.409-2.126-.572-3.188a8.933,8.933,0,0,0-.409-1.39l-.572.164.572,2.126L55.049,6.949l-.082.409c.654.409,1.308.736,1.962,1.145a1.545,1.545,0,0,1,.736,1.553c-.082,1.063-.164,2.207-.164,3.188a6.311,6.311,0,0,1-.164,1.226h0l-1.063-2.616c-.164.245-.409.245-.245.572a8.665,8.665,0,0,1,.654,3.516,1.162,1.162,0,0,0,.164.491c.491.818.981,1.635,1.472,2.534a5.62,5.62,0,0,1,.409,1.962c-.491-.245-.818-.491-1.226-.654a2.715,2.715,0,0,1-1.39-1.472c-.164-.409-.245-.818-.409-1.308l-.327.164.654,1.717a7.26,7.26,0,0,1-1.8-1.308,2.763,2.763,0,0,1-.736-1.553c0-.818-.164-1.635-.245-2.453a7.734,7.734,0,0,0-1.226-3.107V10.71c.245-.654.409-1.308.654-2.044l-.491-.082V8.83c-.164.572-.409,1.145-.572,1.8a.176.176,0,0,1-.164.164.153.153,0,0,1-.245,0l-1.8-.164-1.226-.245-.164.654,1.553.164a1.917,1.917,0,0,1,1.8.818,5.919,5.919,0,0,1,.9,1.553c.164.981.327,2.044.491,3.025a3.353,3.353,0,0,1,.082.9c0,.327-.082.409-.409.409H51.288A2.756,2.756,0,0,1,49.9,17.5a6.535,6.535,0,0,1-1.063-1.063,10.651,10.651,0,0,1-.818-1.226l-.572.245m4.66-12.263c.327.245.654.572.981.818a9.934,9.934,0,0,0,3.6,1.8.393.393,0,0,0,.491-.164,6.4,6.4,0,0,0,.981-2.616c0-.491.164-.9.164-1.39h0a16.225,16.225,0,0,0-1.145,3.352A17.157,17.157,0,0,0,55.457,0a5.767,5.767,0,0,0,.9,4.742,11.614,11.614,0,0,0-4.251-1.553M37.553,21.829v.164l4.17-.9c-.409.491-.981,1.063-1.39,1.553-.409.572-.818,1.145-1.226,1.8h0a12.012,12.012,0,0,0,4.415-4.17,8.588,8.588,0,0,0-5.968,1.553m48.972-1.962a18.517,18.517,0,0,0-5.641-.9,15.822,15.822,0,0,0,4.66-1.635,15.874,15.874,0,0,0-6.377,1.8,17.3,17.3,0,0,0,7.358.736M50.715,15.861A8.113,8.113,0,0,0,48.1,13.735,9.361,9.361,0,0,0,51.7,17.5a7.313,7.313,0,0,0-1.39-5.314v.327a6.685,6.685,0,0,0,.409,3.352m-6.786,0c1.226.818,2.126.572,3.434-.654l-5.232-2.7v.327a2.673,2.673,0,0,0,.9,1.226A9.475,9.475,0,0,0,46.3,15.37l-2.371.491M82.682,6.868h0l-3.434,1.8,1.8-2.78h0a8.305,8.305,0,0,0-3.025,4.088,10.011,10.011,0,0,0,4.66-3.107M63.715.736h-.082a9.482,9.482,0,0,0-.327,6.54c.164-.818.409-1.635.572-2.453a8.4,8.4,0,0,0,.164-3.188,3.986,3.986,0,0,1-.327-.9M46.628,22.81c-1.226,1.063-1.472,1.39-1.635,1.88a7.731,7.731,0,0,0,3.6-2.861,5.4,5.4,0,0,0-4.251,1.39,6.712,6.712,0,0,0,2.289-.409M72.3,11.282l1.553-1.063a4.753,4.753,0,0,0,1.39-1.472,9.857,9.857,0,0,0-4.333,3.188,12.715,12.715,0,0,0,4.66-.818,11,11,0,0,0-3.27.164M60.444.736A11.218,11.218,0,0,0,57.583,5.8,6.527,6.527,0,0,0,60.444.736m5.886,2.943a9.116,9.116,0,0,0-.818,6.377,14.193,14.193,0,0,0,.818-6.377M62.979,8.012a9.412,9.412,0,0,0-2.207-5.151,6.8,6.8,0,0,0,2.207,5.151M54.64,7.44c-.409-1.472-2.289-2.78-3.27-2.534l2.044,1.88H51.288v.082a5.353,5.353,0,0,0,3.352.572M47.609,9.893a6.191,6.191,0,0,0-4.17-2.616,5.525,5.525,0,0,0,4.17,2.616m36.463,5.151a9.532,9.532,0,0,0-5.232,3.679,17.852,17.852,0,0,0,5.232-3.679m-25.426-1.8c.409-.736.736-1.308,1.063-1.962A8.883,8.883,0,0,0,60.771,8.5V7.849a7.815,7.815,0,0,0-2.126,5.4m18.4-1.553A10.493,10.493,0,0,0,82.355,8.5a16.746,16.746,0,0,0-5.314,3.188M47.609,10.383a15.792,15.792,0,0,0-5.151-.818,5.517,5.517,0,0,0,5.151.818m18.313-.409a15.568,15.568,0,0,0,4.5-4.742,16.493,16.493,0,0,0-4.5,4.742M73.2,6.868a6.985,6.985,0,0,0-2.534,5.151A20.648,20.648,0,0,0,73.2,6.786M66.331,8.257A12.433,12.433,0,0,0,69.519,3.27a10.729,10.729,0,0,0-3.188,4.987M79.984,19.785h0c.245.327.572.736.818,1.063a3.467,3.467,0,0,0,2.534,1.39h.736a15.516,15.516,0,0,0-4.088-2.453M52.105,7.849l-.245-.164A9.464,9.464,0,0,0,48.59,6.05a2.9,2.9,0,0,1-.818-.164,4.711,4.711,0,0,0,4.333,1.962m24.936-1.39a8.194,8.194,0,0,0-.491,5.4,15.144,15.144,0,0,0,.491-5.4M61.507,12.917h0a7.667,7.667,0,0,0-1.063,3.516A5.961,5.961,0,0,0,62.9,13.245a7.828,7.828,0,0,0-1.88,1.8l.491-2.126M68.538,10.3a1.428,1.428,0,0,0-.572-1.145,3.4,3.4,0,0,0,.164,1.8c.164.409.164.409.654.327a1.844,1.844,0,0,0,1.39-1.063h0l-1.063.491.409-2.453h0A6.307,6.307,0,0,0,68.7,10.3M52.841,9.157A4.593,4.593,0,0,0,55.7,12.182c-.654-1.39-1.962-2.943-2.861-3.025m30.822,1.717A12.576,12.576,0,0,0,78.84,13.98a12.244,12.244,0,0,0,4.824-3.107m-37.853.572c-.164,1.308.818,3.27,1.635,3.516a4.917,4.917,0,0,0-1.635-3.516m1.8,14.716a4.971,4.971,0,0,0,1.145-4.088,5.824,5.824,0,0,0-1.145,4.088M61.834,9.974a11.235,11.235,0,0,0-3.352,4.742,23.734,23.734,0,0,0,3.352-4.742M41.722,25.263a7.611,7.611,0,0,0,1.8-4.251,8.233,8.233,0,0,0-1.8,4.251M46.873,6.7a3.455,3.455,0,0,0,1.553,3.352A6.086,6.086,0,0,0,46.873,6.7m32.294,16.76a5.5,5.5,0,0,0-3.843-1.308,6.41,6.41,0,0,0,3.843,1.308m-24.2-15.7a7.1,7.1,0,0,0,.818,3.924,4.857,4.857,0,0,0-.818-3.924m0,9.4a7.6,7.6,0,0,0-.9-4.006,5.748,5.748,0,0,0,.9,4.006m.818-3.434a5.682,5.682,0,0,0-.409,3.843,4.871,4.871,0,0,0,.409-3.843m28.369-.981a11.968,11.968,0,0,0-4.088.981,4.881,4.881,0,0,0,4.088-.981M72.463,17.005h0l-2.044.654a3.984,3.984,0,0,1,.245-.572,1.54,1.54,0,0,0,.164-.654,2.79,2.79,0,0,0-1.226,1.8,3.835,3.835,0,0,0,2.861-1.226m-1.226,8.5a4.969,4.969,0,0,0-.981-3.679,7.081,7.081,0,0,0,.981,3.679m-.409-3.6a6.1,6.1,0,0,0,2.78,2.78,6.514,6.514,0,0,0-2.78-2.78M52.269,8.012a7.1,7.1,0,0,0-3.434.572,3.313,3.313,0,0,0,3.434-.572m26.9,6.132h0a3.62,3.62,0,0,0,3.843,0Zm-8.5.245A5.54,5.54,0,0,0,74.1,13a6.054,6.054,0,0,0-3.434,1.39m4.251,7.358a9.2,9.2,0,0,0,4.17-.736,8.076,8.076,0,0,0-4.17.736M57.665,5.8a3.246,3.246,0,0,0,3.107.409A4.561,4.561,0,0,0,57.665,5.8M77.2,25.017a4.5,4.5,0,0,0-1.8-2.616,5.4,5.4,0,0,0,1.8,2.616M79.494,14.88a4.344,4.344,0,0,0-.981,3.27,10.853,10.853,0,0,0,.981-3.27m-19.54-1.145a3.3,3.3,0,0,0,0,2.78,7.937,7.937,0,0,0,0-2.78m8.421,1.88a3.69,3.69,0,0,0-2.616-.327,3.586,3.586,0,0,0,2.616.327m4.5-.572a3.076,3.076,0,0,0,2.371-.736,3.357,3.357,0,0,0-2.289.9m.818-2.289a4.39,4.39,0,0,0-2.861-.491,8.421,8.421,0,0,0,2.861.491m4.824-.409a.622.622,0,0,0-.491-.654.458.458,0,0,0-.409.491.712.712,0,0,0,.491.654.458.458,0,0,0,.409-.491m-8.666,9.729c0-.082,0-.245-.082-.245-.082-.082-.164-.082-.327-.082a.632.632,0,0,0-.572.654c0,.082,0,.245.082.245s.164.082.245.082a.887.887,0,0,0,.654-.654m4.66-.654a2.9,2.9,0,0,0,1.472-1.635,3.532,3.532,0,0,0-1.472,1.635M47.609,11.2c0-.082-.082-.164-.082-.245a.3.3,0,0,0-.245-.082.528.528,0,0,0-.491.491.289.289,0,0,0,.327.327.471.471,0,0,0,.491-.491m18.886-1.063a.7.7,0,0,0-.572.491c0,.082.082.164.082.245a.3.3,0,0,0,.245.082.6.6,0,0,0,.572-.491c.082-.164-.082-.327-.327-.327M62.407,8.993a.458.458,0,0,0,.491-.409.5.5,0,0,0-.981,0,.458.458,0,0,0,.491.409m-18.886,6.05a.374.374,0,0,0-.409-.327c-.245,0-.572.164-.572.409s.245.327.409.327a.545.545,0,0,0,.572-.409M57.011,9.4a.6.6,0,0,0-.572.491c0,.082.082.164.164.245a.3.3,0,0,0,.245.082.541.541,0,0,0,.572-.491c0-.082-.082-.164-.082-.245-.082-.082-.164-.082-.327-.082m8.012,6.949a.552.552,0,0,0,.491-.327.458.458,0,0,0-.491-.409.374.374,0,0,0-.409.327.425.425,0,0,0,.164.327c0,.082.082.164.245.082M44.747,21.175a.289.289,0,0,0-.327-.327.7.7,0,0,0-.572.491.543.543,0,0,0,.327.409.7.7,0,0,0,.572-.572m-3.516-2.453c0-.164-.164-.409-.327-.409-.245,0-.409.245-.409.572s.164.409.327.409a.615.615,0,0,0,.409-.572M56.03,6.7a.547.547,0,0,0,.572-.491c0-.082-.082-.164-.164-.245a.3.3,0,0,0-.245-.082.471.471,0,0,0-.491.491c-.082.245.082.327.327.327M79,19.949a.3.3,0,0,0-.327.327.547.547,0,0,0,.572.491.289.289,0,0,0,.327-.327A.7.7,0,0,0,79,19.949m-3.188-8.094a.53.53,0,0,0-.491.409c0,.082.082.164.082.245a.3.3,0,0,0,.245.082.518.518,0,0,0,.491-.409c-.082-.327-.164-.327-.327-.327m-8.257,2.78a1.447,1.447,0,0,0,1.145.9,1.477,1.477,0,0,0-1.145-.9m1.635,2.289a1.112,1.112,0,0,0,0,1.226,1.591,1.591,0,0,0,0-1.226" transform="translate(-6.404)"/>
  <path id="Path_5_" d="M34.1,21.818A4.158,4.158,0,0,1,36.716,21c.818.082,1.635.164,2.453.327a5.736,5.736,0,0,1,1.472.409,8.844,8.844,0,0,1-5.069,2.534,5.093,5.093,0,0,1,3.188-2.126,28.436,28.436,0,0,1-4.66-.327Z" transform="translate(-6.221 -3.831)"/>
  <path id="Shape_4_" d="M49.213,16.647,49.7,16.4c.245.409.572.818.818,1.226a6.535,6.535,0,0,0,1.063,1.063,1.762,1.762,0,0,0,1.39.409h1.145c.327,0,.409,0,.409-.409,0-.327-.082-.572-.082-.9-.164-.981-.327-2.044-.491-3.107a3.705,3.705,0,0,0-.9-1.553,1.862,1.862,0,0,0-1.717-.818l-1.553-.164.164-.654,1.226.245,1.717.245h.245c.082,0,.082-.082.164-.164.164-.572.409-1.145.572-1.8V9.861l.491.164-.654,2.044v.245a6.908,6.908,0,0,1,1.226,3.107c.164.818.164,1.635.245,2.453a2.763,2.763,0,0,0,.736,1.553,7.115,7.115,0,0,0,1.717,1.39l-.654-1.8.327-.164c.164.409.245.9.409,1.308a3.069,3.069,0,0,0,1.308,1.553,8.937,8.937,0,0,1,1.226.654,5.262,5.262,0,0,0-.409-1.962c-.491-.818-.981-1.635-1.472-2.534a1.182,1.182,0,0,1-.164-.572,9.055,9.055,0,0,0-.654-3.6c-.082-.327.164-.327.245-.572l.9,2.7h0a6.311,6.311,0,0,1,.164-1.226c0-1.063.164-2.126.245-3.188A1.668,1.668,0,0,0,58.37,9.78c-.572-.409-1.226-.736-1.88-1.145l.409-.409,2.207,1.063-.572-2.207L59.188,7c.164.491.245.981.409,1.39a21.764,21.764,0,0,1,.572,3.188,12.294,12.294,0,0,1,0,2.453c0,.736-.245,1.553-.245,2.289a1.319,1.319,0,0,0,.245.736,5.133,5.133,0,0,0,.9.981.867.867,0,0,0,1.472,0,25.133,25.133,0,0,0,2.78-3.107,1.319,1.319,0,0,0,.245-.736,15.386,15.386,0,0,0-.572-4.333l-.082-.327.245-.164.245-.164a23.811,23.811,0,0,1,.736,4.742,3.856,3.856,0,0,0,.981-2.616c.491,0,.491,0,.491.491a3.327,3.327,0,0,1-.654,1.962c-.491.736-.9,1.39-1.39,2.207.736-.245,1.472-.572,2.207-.818a2.667,2.667,0,0,0,1.717-1.39,8.17,8.17,0,0,1,.654-1.145l.409.164-1.063,1.8,2.78-1.226.164.409-3.188,1.39L66.382,16.4a5.9,5.9,0,0,0-2.453,2.044l-.654.9a2.341,2.341,0,0,0-.491,1.8,13.248,13.248,0,0,0,.245,1.635h.327l.818-.245A2.467,2.467,0,0,0,65.892,20.9c.245-.572.491-1.145.736-1.635a1.288,1.288,0,0,1,.572-.572l2.943-1.308a2.08,2.08,0,0,0,.981-.9,8.936,8.936,0,0,0,.654-1.226.217.217,0,0,1,.245-.245c.164,0,.245-.082.327,0l-.981,1.8,1.063-.164L73.9,16.4a.24.24,0,0,1,.245.245c-1.063.327-2.207.572-3.27.981a5.584,5.584,0,0,0-3.352,3.434c0,.245,0,.491,0,.654A5.9,5.9,0,0,0,70.8,19.59l.409.245-.981,1.308a25.485,25.485,0,0,0,4.251-.654,1.228,1.228,0,0,0,.981-.9,14.89,14.89,0,0,1,1.226-2.207,10.639,10.639,0,0,0,1.39-3.6v-.164h.491a14.451,14.451,0,0,1-.654,2.534,17.563,17.563,0,0,1-1.145,2.126l3.025-2.861.245.327a21.319,21.319,0,0,0-1.88,1.962,14.928,14.928,0,0,0-1.063,1.308,2.6,2.6,0,0,0-.245.736l1.472.327c.736.164,1.39.327,2.126.491.082,0,.164.245.245.327h0c-.736,0-1.472-.164-2.289-.245H76.684a1.162,1.162,0,0,0-.491.164,6.2,6.2,0,0,1-3.27,1.226h-.164a6.94,6.94,0,0,0,3.107.981l-.164.491-1.717-.327a11.952,11.952,0,0,0-1.635-.409,6.609,6.609,0,0,0-2.534,0c-1.39.327-2.7.654-4.006,1.063-.082,0-.164.082-.245.164l-2.453,2.616a.492.492,0,0,0-.082.327A15.808,15.808,0,0,1,62.54,30.3a.743.743,0,0,0,0,.818c.245.409.491.818.736,1.308.164.327.245.736.409,1.145l.491,1.308a58.46,58.46,0,0,1,12.345,1.8v.572a104.686,104.686,0,0,0-31.149,0v-.327c0-.164,0-.245.245-.327.9-.164,1.717-.409,2.534-.572,1.553-.245,3.025-.572,4.578-.818,1.145-.164,2.289-.245,3.516-.327H57.88V33.816c.082-1.39.245-2.78.327-4.17a5.4,5.4,0,0,0-.082-1.145c-.082-.736-.245-1.39-.327-2.126a.425.425,0,0,0-.164-.327,16.975,16.975,0,0,0-1.962-2.78,4.175,4.175,0,0,0-1.717-1.226,1.622,1.622,0,0,0-1.472.245,10.652,10.652,0,0,0-1.226.818.249.249,0,0,1-.327,0l-.491-.327a7.752,7.752,0,0,1,2.207-1.39,9.9,9.9,0,0,0-3.107,0c-1.063.164-2.044.409-3.107.572l-.327-.736,3.352-.818a9.549,9.549,0,0,0-6.377-.9L43,18.936l3.188-.164a13.928,13.928,0,0,1-2.861-1.553l.409-.409.491.327a8.883,8.883,0,0,0,2.78,1.063,19.769,19.769,0,0,1,2.943.818,1.393,1.393,0,0,0,.818,0l-1.553-2.371M61.068,35.369h0a9.038,9.038,0,0,1-1.063-7.522c-.164.245-.245.572-.409.818a15.617,15.617,0,0,0-.818,5.8c0,.082.082.164.164.245l2.126.654m-2.044-7.522.491-.818c.491-.818.409-.736.164-1.635a3.554,3.554,0,0,0-1.88-2.044h-.245a1.435,1.435,0,0,0-.327.409c.245.245.491.572.736.818a1.71,1.71,0,0,1,.327.491c.245.9.491,1.8.736,2.78m3.924,7.6-.164-.245c-.409-.981-.736-1.962-1.145-2.861a2.168,2.168,0,0,0-.409-.491h-.409v.409c.245.9.491,1.8.736,2.616,0,.082.082.245.164.245a2.008,2.008,0,0,0,1.226.409M53.465,20.9a4.95,4.95,0,0,1,3.025,1.88,9.009,9.009,0,0,1,.164-1.472s-.082-.164-.164-.164c-.491-.245-1.063-.409-1.553-.654-.491-.164-.736-.245-1.472.409h0m12.263,2.371h-.082l-2.044.654c-.082.082-.164.164-.164.245a15.689,15.689,0,0,1-.245,1.8,7.76,7.76,0,0,1,2.616-2.534M62.376,26.7l-.736,1.8v.082l.409,1.717a10.759,10.759,0,0,0,.327-3.6m-.245-3.924A6.924,6.924,0,0,0,60.9,20.326v2.289h.981m-.9,2.78h0l.981-2.126H60.9l.082,2.126M50.522,19.754a2.728,2.728,0,0,0,1.88.736h.164l.409-.572-2.453-.164" transform="translate(-7.845 -1.277)"/>
  <path id="Path_6_" d="M40.8,18.332c-.654.164-1.308.245-2.044.409a1.993,1.993,0,0,1-.981,0,4.863,4.863,0,0,1,2.534-.981A11.611,11.611,0,0,1,35,15.389a10.506,10.506,0,0,1,2.78.572c.9.327,1.717.736,2.616,1.063a13.192,13.192,0,0,1-2.78-3.924h0a9.254,9.254,0,0,1,1.063.818,8.512,8.512,0,0,1,2.534,3.107,3.417,3.417,0,0,0,.327.818v.164c0,.082-.082.082-.164.164Z" transform="translate(-6.385 -2.39)"/>
  <path id="Path_7_" d="M56.164,3.188a12.076,12.076,0,0,1,4.17,1.472,5.53,5.53,0,0,1-.9-4.66,15.187,15.187,0,0,1,1.88,4.824,27.678,27.678,0,0,1,1.226-3.352h0a4.153,4.153,0,0,1-.245,1.39,6.565,6.565,0,0,1-1.063,2.616.343.343,0,0,1-.491.245,10.5,10.5,0,0,1-3.761-1.717L56,3.27" transform="translate(-10.216)"/>
  <path id="Path_8_" d="M39,26.559a8.421,8.421,0,0,1,5.723-1.472,11.742,11.742,0,0,1-4.17,4.088h-.082c.409-.572.736-1.145,1.145-1.717s.9-1.063,1.308-1.553L39,26.8v-.245" transform="translate(-7.115 -4.567)"/>
  <path id="Path_9_" d="M96.358,23.371A18.7,18.7,0,0,1,89,22.635,18.817,18.817,0,0,1,95.377,21a15.5,15.5,0,0,1-4.66,1.472,21.414,21.414,0,0,1,5.641.9" transform="translate(-16.237 -3.831)"/>
  <path id="Path_10_" d="M53.453,18.352a9.883,9.883,0,0,1-.491-3.107V15a6.953,6.953,0,0,1,1.226,4.905A7.812,7.812,0,0,1,51,16.39a7.24,7.24,0,0,1,2.453,1.962" transform="translate(-9.304 -2.737)"/>
  <path id="Path_11_" d="M45.717,18.516l2.289-.572A9.346,9.346,0,0,1,44.9,16.635a2.525,2.525,0,0,1-.9-1.308V15l4.905,2.943c-1.226,1.226-1.962,1.553-3.188.572" transform="translate(-8.027 -2.737)"/>
  <path id="Path_12_" d="M91.905,8.063A9.963,9.963,0,0,1,87,11.088,8.112,8.112,0,0,1,90.107,7h0l-1.8,2.78,3.434-1.717h0" transform="translate(-15.872 -1.277)"/>
  <path id="Path_13_" d="M70.128,1c.082.327.164.736.245,1.063A9.94,9.94,0,0,1,70.21,5.17c-.082.736-.327,1.553-.491,2.371A10.021,10.021,0,0,1,70.128,1h0" transform="translate(-12.653 -0.182)"/>
  <path id="Path_14_" d="M49.289,27.15A5.486,5.486,0,0,1,47,27.641a4.474,4.474,0,0,1,4.088-1.553,7.586,7.586,0,0,1-3.434,3.188c.164-.491.409-.9,1.635-2.126" transform="translate(-8.575 -4.749)"/>
  <path id="Path_15_" d="M80.472,13.534a9.724,9.724,0,0,1,3.434-.164,14.1,14.1,0,0,1-4.905.9A10.514,10.514,0,0,1,83.5,11a5.953,5.953,0,0,1-1.39,1.472l-1.635,1.063" transform="translate(-14.413 -2.007)"/>
  <path id="Path_16_" d="M65.453,1A6.4,6.4,0,0,1,63,5.905,12.61,12.61,0,0,1,65.453,1" transform="translate(-11.494 -0.182)"/>
  <path id="Path_17_" d="M73.381,4a17.73,17.73,0,0,1-.736,6.54A10.03,10.03,0,0,1,73.381,4" transform="translate(-13.208 -0.73)"/>
  <path id="Path_18_" d="M69.452,8.905A5.824,5.824,0,0,1,67,4a8.07,8.07,0,0,1,2.453,4.905" transform="translate(-12.222 -0.73)"/>
  <path id="Path_19_" d="M58.27,8.364A5.556,5.556,0,0,1,55,7.873V7.792h2.044l-1.88-1.8c.981-.245,2.7.981,3.107,2.371" transform="translate(-10.034 -1.088)"/>
  <path id="Path_20_" d="M50.088,11.453A5.421,5.421,0,0,1,46,9a5.934,5.934,0,0,1,4.088,2.453" transform="translate(-8.392 -1.642)"/>
  <path id="Path_21_" d="M93.905,19A15.621,15.621,0,0,1,89,22.27,9.691,9.691,0,0,1,93.905,19" transform="translate(-16.237 -3.466)"/>
  <path id="Path_22_" d="M64,14.723A8.484,8.484,0,0,1,66.453,9v.736A12.315,12.315,0,0,1,65.308,12.6c-.327.654-.736,1.308-1.145,2.126" transform="translate(-11.676 -1.642)"/>
  <path id="Path_23_" d="M87,13.27A13.966,13.966,0,0,1,91.905,10,9.359,9.359,0,0,1,87,13.27" transform="translate(-15.872 -1.824)"/>
  <path id="Path_24_" d="M49.905,12.133A5.27,5.27,0,0,1,45,11.4a14,14,0,0,1,4.905.736" transform="translate(-8.21 -2.077)"/>
  <path id="Path_25_" d="M73,10.824A13.851,13.851,0,0,1,77.088,6,14.77,14.77,0,0,1,73,10.824" transform="translate(-13.318 -1.095)"/>
  <path id="Path_26_" d="M81.453,9A19.68,19.68,0,0,1,79,13.905,6.817,6.817,0,0,1,81.453,9" transform="translate(-14.413 -1.642)"/>
  <path id="Path_27_" d="M73,8.905A10.431,10.431,0,0,1,76.27,4,11.544,11.544,0,0,1,73,8.905" transform="translate(-13.318 -0.73)"/>
  <path id="Path_28_" d="M90.1,24.1a15.706,15.706,0,0,1,4.088,2.371h-.736a3.62,3.62,0,0,1-2.534-1.39c-.327-.327-.572-.736-.818-.981h0" transform="translate(-16.438 -4.397)"/>
  <path id="Path_29_" d="M55.088,8.635A4.617,4.617,0,0,1,51,7a2.52,2.52,0,0,1,.818.082,10.178,10.178,0,0,1,3.025,1.39l.245.164" transform="translate(-9.304 -1.277)"/>
  <path id="Path_30_" d="M86.246,8a16.942,16.942,0,0,1-.409,5.723A9.158,9.158,0,0,1,86.246,8" transform="translate(-15.609 -1.46)"/>
  <path id="Path_31_" d="M67.063,16.1l-.409,1.962a8.57,8.57,0,0,1,1.8-1.635A5.611,5.611,0,0,1,66,19.288,6.184,6.184,0,0,1,67.063,16.1h0" transform="translate(-12.041 -2.937)"/>
  <path id="Path_32_" d="M75.817,12.289a11.108,11.108,0,0,1,.9-2.289h0l-.409,2.7,1.145-.572h0A2.47,2.47,0,0,1,75.9,13.27c-.491.082-.491,0-.654-.409a3.248,3.248,0,0,1-.164-1.962,1.471,1.471,0,0,1,.572,1.226" transform="translate(-13.682 -1.824)"/>
  <path id="Path_33_" d="M57,11c.818.164,1.962,1.717,2.453,3.27A4.537,4.537,0,0,1,57,11" transform="translate(-10.399 -2.007)"/>
  <path id="Path_34_" d="M93.905,13A12.343,12.343,0,0,1,89,16.27,12.941,12.941,0,0,1,93.905,13" transform="translate(-16.237 -2.372)"/>
  <path id="Path_35_" d="M49.1,14a4.234,4.234,0,0,1,1.472,3.27c-.736-.164-1.553-2.044-1.472-3.27" transform="translate(-8.956 -2.554)"/>
  <path id="Path_36_" d="M50.4,31.088A6.555,6.555,0,0,1,51.46,27,5.956,5.956,0,0,1,50.4,31.088" transform="translate(-9.192 -4.926)"/>
  <path id="Path_37_" d="M67.27,12A22.312,22.312,0,0,1,64,16.905,12.636,12.636,0,0,1,67.27,12" transform="translate(-11.676 -2.189)"/>
  <path id="Path_38_" d="M44,30.088A8.49,8.49,0,0,1,45.635,26,6.935,6.935,0,0,1,44,30.088" transform="translate(-8.027 -4.743)"/>
  <path id="Path_39_" d="M50.194,8a5.379,5.379,0,0,1,1.39,3.27A3.534,3.534,0,0,1,50.194,8" transform="translate(-9.152 -1.46)"/>
  <path id="Path_40_" d="M88.088,28.524A7.086,7.086,0,0,1,84,27.3a6.534,6.534,0,0,1,4.088,1.226" transform="translate(-15.325 -4.979)"/>
  <path id="Path_41_" d="M59.5,9a5.969,5.969,0,0,1,.736,4.088A8.674,8.674,0,0,1,59.5,9" transform="translate(-10.852 -1.642)"/>
  <path id="Path_42_" d="M59.407,20.088A6.51,6.51,0,0,1,58.589,16a8.728,8.728,0,0,1,.818,4.088" transform="translate(-10.68 -2.919)"/>
  <path id="Path_43_" d="M60.084,17a5.854,5.854,0,0,1-.409,4.088A7.738,7.738,0,0,1,60.084,17" transform="translate(-10.866 -3.101)"/>
  <path id="Path_44_" d="M94.088,15.4A5.476,5.476,0,0,1,90,16.3a14.089,14.089,0,0,1,4.088-.9" transform="translate(-16.419 -2.81)"/>
  <path id="Path_45_" d="M80.453,20.572A3.226,3.226,0,0,1,78,21.635,2.75,2.75,0,0,1,79.063,20a1.182,1.182,0,0,1-.164.572c-.082.164-.164.409-.245.572l1.717-.654h0" transform="translate(-14.23 -3.649)"/>
  <path id="Path_46_" d="M79.3,30.27A5.815,5.815,0,0,1,78.4,27a4.381,4.381,0,0,1,.9,3.27" transform="translate(-14.303 -4.926)"/>
  <path id="Path_47_" d="M79,27a5.911,5.911,0,0,1,2.453,2.453A5.476,5.476,0,0,1,79,27" transform="translate(-14.413 -4.926)"/>
  <path id="Path_48_" d="M55.27,9.6a3.152,3.152,0,0,1-3.27.491A7.6,7.6,0,0,1,55.27,9.6" transform="translate(-9.487 -1.747)"/>
  <path id="Path_49_" d="M89,17.7h4.088A4.5,4.5,0,0,1,89,17.7h0" transform="translate(-16.237 -3.229)"/>
  <path id="Path_50_" d="M79,17.526A5.209,5.209,0,0,1,82.27,16.3,5.726,5.726,0,0,1,79,17.526" transform="translate(-14.413 -2.974)"/>
  <path id="Path_51_" d="M84,26.243a7.864,7.864,0,0,1,4.088-.654A8.63,8.63,0,0,1,84,26.243" transform="translate(-15.325 -4.659)"/>
  <path id="Path_52_" d="M63,7.675a4.964,4.964,0,0,1,3.27.409A4.181,4.181,0,0,1,63,7.675" transform="translate(-11.494 -1.38)"/>
  <path id="Path_53_" d="M86.635,30.453A4.252,4.252,0,0,1,85,28a3.609,3.609,0,0,1,1.635,2.453" transform="translate(-15.507 -5.108)"/>
  <path id="Path_54_" d="M89.39,18a11.442,11.442,0,0,1-.9,3.27,4.288,4.288,0,0,1,.9-3.27" transform="translate(-16.137 -3.284)"/>
  <path id="Path_55_" d="M66.032,17a6.193,6.193,0,0,1,0,2.453,2.606,2.606,0,0,1,0-2.453" transform="translate(-11.991 -3.101)"/>
  <path id="Path_56_" d="M75.453,19.114A4.174,4.174,0,0,1,73,18.869a3.2,3.2,0,0,1,2.453.245" transform="translate(-13.318 -3.417)"/>
  <path id="Path_57_" d="M81,18.318a3.706,3.706,0,0,1,2.453-.818A3.43,3.43,0,0,1,81,18.318" transform="translate(-14.777 -3.193)"/>
  <path id="Path_58_" d="M81.453,15.186A6.561,6.561,0,0,1,79,14.7a4.159,4.159,0,0,1,2.453.491" transform="translate(-14.413 -2.677)"/>
  <path id="Path_59_" d="M88.318,14.954a.374.374,0,0,1-.327.409.7.7,0,0,1-.491-.572.518.518,0,0,1,.409-.491.563.563,0,0,1,.409.654" transform="translate(-15.963 -2.609)"/>
  <path id="Path_60_" d="M77.4,26.827a.559.559,0,0,1-.572.572.289.289,0,0,1-.327-.327.559.559,0,0,1,.572-.572.3.3,0,0,1,.245.082c.082,0,.082.082.082.245" transform="translate(-13.956 -4.835)"/>
  <path id="Path_61_" d="M83.2,25.572A2.472,2.472,0,0,1,84.59,24.1a2.715,2.715,0,0,1-1.39,1.472" transform="translate(-15.179 -4.397)"/>
  <path id="Path_62_" d="M50.318,13.827a.528.528,0,0,1-.491.491.289.289,0,0,1-.327-.327.471.471,0,0,1,.491-.491.289.289,0,0,1,.327.327" transform="translate(-9.031 -2.463)"/>
  <path id="Path_63_" d="M42.756,19.5c.327,0,.572.164.572.491s0,.327-.245.409a.624.624,0,0,1-.409-.164.525.525,0,0,1,.082-.736Z" transform="translate(-7.765 -3.558)"/>
  <path id="Path_64_" d="M73.991,12.592c.245,0,.327.082.327.327a.458.458,0,0,1-.491.409A.289.289,0,0,1,73.5,13a.425.425,0,0,1,.164-.327c.082-.082.245-.164.327-.082" transform="translate(-13.409 -2.291)"/>
  <path id="Path_65_" d="M68.909,11.254a.374.374,0,0,1-.409-.327c0-.245.245-.327.409-.327a.552.552,0,0,1,.491.327c-.082.245-.245.409-.491.327" transform="translate(-12.497 -1.934)"/>
  <path id="Path_66_" d="M45.4,17.927a.458.458,0,0,1-.491.409.417.417,0,0,1-.409-.327.62.62,0,0,1,.164-.327.492.492,0,0,1,.327-.082c.245,0,.409.082.409.327" transform="translate(-8.118 -3.211)"/>
  <path id="Path_67_" d="M61.972,11.5a.289.289,0,0,1,.327.327.458.458,0,0,1-.491.409.3.3,0,0,1-.245-.082c-.082-.082-.082-.164-.164-.245a.765.765,0,0,1,.572-.409" transform="translate(-11.202 -2.098)"/>
  <path id="Path_68_" d="M71.991,20.318c-.164,0-.245,0-.327-.164a.62.62,0,0,1-.164-.327.374.374,0,0,1,.409-.327.518.518,0,0,1,.491.409c0,.245-.245.327-.409.409" transform="translate(-13.044 -3.558)"/>
  <path id="Path_69_" d="M47.318,25.827a.528.528,0,0,1-.491.491.352.352,0,0,1-.327-.327.528.528,0,0,1,.491-.491.289.289,0,0,1,.327.327" transform="translate(-8.483 -4.652)"/>
  <path id="Path_70_" d="M43.336,22.809a.458.458,0,0,1-.409.491.352.352,0,0,1-.327-.327c0-.245.164-.572.409-.572a.543.543,0,0,1,.327.409" transform="translate(-7.772 -4.087)"/>
  <path id="Path_71_" d="M60.827,8.236c-.245,0-.327-.082-.327-.327a.458.458,0,0,1,.491-.409.3.3,0,0,1,.245.082c.082.082.082.164.164.245-.082.245-.245.491-.572.409" transform="translate(-11.037 -1.368)"/>
  <path id="Path_72_" d="M88.827,24.5a.471.471,0,0,1,.491.491.289.289,0,0,1-.327.327.458.458,0,0,1-.491-.409.374.374,0,0,1,.327-.409" transform="translate(-16.146 -4.47)"/>
  <path id="Path_73_" d="M85.005,14.6c.164,0,.327,0,.327.245a.438.438,0,0,1-.409.409.289.289,0,0,1-.327-.327c-.082-.164.164-.327.409-.327" transform="translate(-15.431 -2.664)"/>
  <path id="Path_74_" d="M75.4,18.5a1.333,1.333,0,0,1,1.063.9,1.693,1.693,0,0,1-1.063-.9" transform="translate(-13.756 -3.375)"/>
  <path id="Path_75_" d="M77.045,20.3a1.393,1.393,0,0,1,0,1.145.79.79,0,0,1,0-1.145" transform="translate(-14.011 -3.703)"/>
  <path id="Shape_5_" d="M6.3,56.434H3.924v.572h1.8V59.3a2.929,2.929,0,0,1-.9.327,4.661,4.661,0,0,1-1.063.082,3.281,3.281,0,0,1-1.226-.245,3.421,3.421,0,0,1-.981-.654,1.962,1.962,0,0,1-.572-.981,3.912,3.912,0,0,1,0-2.371,6.1,6.1,0,0,1,.572-.981,2.94,2.94,0,0,1,.981-.654,3.281,3.281,0,0,1,1.226-.245h.572a1.516,1.516,0,0,1,.572.164l.491.245c.164.082.245.245.409.327l.491-.491A4.669,4.669,0,0,0,3.761,53a4.629,4.629,0,0,0-1.472.245,3.429,3.429,0,0,0-1.145.736,3.234,3.234,0,0,0-.818,1.226A3.207,3.207,0,0,0,0,56.679a4.629,4.629,0,0,0,.245,1.472A3.429,3.429,0,0,0,.981,59.3a3.429,3.429,0,0,0,1.145.736,3.318,3.318,0,0,0,1.553.327,8.055,8.055,0,0,0,1.39-.164A3.612,3.612,0,0,0,6.377,59.7Zm4.578-2.616h1.472a2.521,2.521,0,0,1,.818.082,1.71,1.71,0,0,1,.491.327,1.787,1.787,0,0,1,.245.409,1.134,1.134,0,0,1,0,.736c-.082.164-.164.245-.245.409a1.71,1.71,0,0,1-.491.327,2.905,2.905,0,0,1-.818.164H10.874Zm-.654,6.377h.654v-3.27H12.1l1.962,3.27H14.8l-2.044-3.352a1.924,1.924,0,0,0,.654-.164,1.318,1.318,0,0,0,.572-.327,2.168,2.168,0,0,0,.409-.491,1.474,1.474,0,0,0,.164-.818,1.215,1.215,0,0,0-.164-.736,1.368,1.368,0,0,0-.9-.736c-.164-.082-.409-.082-.572-.164h-2.7Zm7.767-2.044a3.2,3.2,0,0,0,1.88,1.88,4.536,4.536,0,0,0,2.943,0,3.2,3.2,0,0,0,1.88-1.88,4.629,4.629,0,0,0,.245-1.472,3.207,3.207,0,0,0-.327-1.472,3.2,3.2,0,0,0-1.88-1.88,4.536,4.536,0,0,0-2.943,0,3.2,3.2,0,0,0-1.88,1.88,4.629,4.629,0,0,0-.245,1.472,2.8,2.8,0,0,0,.327,1.472m.572-2.616a6.1,6.1,0,0,1,.572-.981,2.94,2.94,0,0,1,.981-.654,3.187,3.187,0,0,1,2.453,0,3.421,3.421,0,0,1,.981.654,1.962,1.962,0,0,1,.572.981,3.912,3.912,0,0,1,0,2.371,6.1,6.1,0,0,1-.572.981,2.94,2.94,0,0,1-.981.654,3.187,3.187,0,0,1-2.453,0,3.421,3.421,0,0,1-.981-.654,1.962,1.962,0,0,1-.572-.981,2.988,2.988,0,0,1,0-2.371M33.52,53.245h-.654v4.905a7.716,7.716,0,0,1-.245.736,1.91,1.91,0,0,1-.572.572,2.083,2.083,0,0,1-1.962,0,1.91,1.91,0,0,1-.572-.572,1.319,1.319,0,0,1-.245-.736V53.245h-.654V57.5a2.415,2.415,0,0,0,.164,1.063,3.022,3.022,0,0,0,.409.9,3.2,3.2,0,0,0,.818.654,3.188,3.188,0,0,0,2.453,0,2.076,2.076,0,0,0,.818-.654,1.815,1.815,0,0,0,.409-.9,4.785,4.785,0,0,0,.164-1.063Zm3.761,6.868h.654v-3.27h1.553a2.781,2.781,0,0,0,.818-.082,1.643,1.643,0,0,0,.654-.327,3.556,3.556,0,0,0,.491-.572,1.345,1.345,0,0,0,.164-.818,1.648,1.648,0,0,0-.245-.9,1.91,1.91,0,0,0-.572-.572,2.9,2.9,0,0,0-.736-.327h-2.78Zm.654-6.3h2.044c.164.082.327.082.491.245a.816.816,0,0,1,.327.409,1.516,1.516,0,0,1,.164.572.778.778,0,0,1-.164.572,1.435,1.435,0,0,1-.327.409l-.491.245H37.935Zm7.031,6.3h4.5v-.572H45.62v-2.7h3.434V56.27H45.62V53.818H49.3v-.572H44.966Zm11.609,0h.654l.818-1.8h3.761l.736,1.8h.736l-2.943-6.868h-.654Zm4.987-2.371H58.374l1.635-3.761Zm10.056.9a2.168,2.168,0,0,1-.409.491,1.71,1.71,0,0,1-.491.327,2.611,2.611,0,0,1-1.145.245,3.281,3.281,0,0,1-1.226-.245,3.421,3.421,0,0,1-.981-.654,1.962,1.962,0,0,1-.572-.981,3.912,3.912,0,0,1,0-2.371,6.1,6.1,0,0,1,.572-.981,2.94,2.94,0,0,1,.981-.654,3.28,3.28,0,0,1,1.226-.245,2.517,2.517,0,0,1,1.063.245,1.789,1.789,0,0,1,.818.736l.572-.409a2.093,2.093,0,0,0-1.063-.818,3.7,3.7,0,0,0-1.308-.245,4.629,4.629,0,0,0-1.472.245,3.2,3.2,0,0,0-1.88,1.88,4.537,4.537,0,0,0,0,2.943,3.2,3.2,0,0,0,1.88,1.88,4.629,4.629,0,0,0,1.472.245,3.207,3.207,0,0,0,1.472-.327,2.719,2.719,0,0,0,1.145-.981Zm8.993,0a2.168,2.168,0,0,1-.409.491,1.71,1.71,0,0,1-.491.327,2.611,2.611,0,0,1-1.145.245,3.281,3.281,0,0,1-1.226-.245,3.421,3.421,0,0,1-.981-.654,1.962,1.962,0,0,1-.572-.981,3.912,3.912,0,0,1,0-2.371,6.1,6.1,0,0,1,.572-.981,2.94,2.94,0,0,1,.981-.654,3.28,3.28,0,0,1,1.226-.245,2.518,2.518,0,0,1,1.063.245,1.79,1.79,0,0,1,.818.736l.572-.409a2.093,2.093,0,0,0-1.063-.818,3.7,3.7,0,0,0-1.308-.245,4.629,4.629,0,0,0-1.472.245,3.2,3.2,0,0,0-1.88,1.88,4.537,4.537,0,0,0,0,2.943,3.2,3.2,0,0,0,1.88,1.88,4.629,4.629,0,0,0,1.472.245,3.207,3.207,0,0,0,1.472-.327,2.719,2.719,0,0,0,1.145-.981Zm3.761,1.472h4.5v-.572H85.027v-2.7H88.46V56.27H85.027V53.818h3.679v-.572H84.372Zm7.849,0h3.924v-.572h-3.27v-6.3h-.654Zm7.113,0h.654V53.245h-.654Zm4.17-.818a2.4,2.4,0,0,0,.981.818,3.389,3.389,0,0,0,1.308.245,2.781,2.781,0,0,0,.818-.082,3.314,3.314,0,0,0,.736-.409c.164-.164.327-.409.491-.572a1.474,1.474,0,0,0,.164-.818,1.942,1.942,0,0,0-.245-.981,2.2,2.2,0,0,0-.654-.572,2.929,2.929,0,0,0-.9-.327c-.327-.082-.572-.164-.9-.245a1.78,1.78,0,0,1-.654-.409,1.381,1.381,0,0,1-.245-.818.778.778,0,0,1,.164-.572,1.784,1.784,0,0,1,.327-.409l.491-.245h.654a2.9,2.9,0,0,1,.818.164,3.555,3.555,0,0,1,.572.491l.572-.409a2.076,2.076,0,0,0-.818-.654,2.517,2.517,0,0,0-1.063-.245,3.354,3.354,0,0,0-.9.082,2.9,2.9,0,0,0-.736.327,1.627,1.627,0,0,0-.654,1.39,2.9,2.9,0,0,0,.164.818,1.467,1.467,0,0,0,.409.572,2.049,2.049,0,0,0,.572.327l.491.327.654.245c.164.082.409.164.572.245a.985.985,0,0,1,.409.409,1.516,1.516,0,0,1,.164.572.778.778,0,0,1-.164.572.816.816,0,0,1-.327.409c-.164.082-.327.245-.491.245a1.594,1.594,0,0,1-.654.082,2.177,2.177,0,0,1-.981-.245,1.97,1.97,0,0,1-.818-.818Z" transform="translate(0 -9.669)"/>
</svg>
